<svg width="811" height="414" viewBox="0 0 811 414" fill="none" xmlns="http://www.w3.org/2000/svg">
<path d="M264.06 40.6299C264.06 49.1599 257.15 56.0699 248.62 56.0699C257.15 56.0699 264.06 62.9799 264.06 71.5099C264.06 62.9799 270.97 56.0699 279.5 56.0699C270.97 56.0699 264.06 49.1599 264.06 40.6299Z" fill="#EB9AC3"/>
<path d="M98.41 0C98.41 17.64 84.11 31.94 66.47 31.94C84.11 31.94 98.41 46.24 98.41 63.88C98.41 46.24 112.71 31.94 130.35 31.94C112.71 31.94 98.41 17.64 98.41 0Z" fill="#FDF1BF"/>
<path d="M46.07 341.1C46.07 355.65 34.27 367.45 19.72 367.45C34.27 367.45 46.07 379.25 46.07 393.8C46.07 379.25 57.87 367.45 72.42 367.45C57.87 367.45 46.07 355.65 46.07 341.1Z" fill="#FDF1BF"/>
<path d="M37.4599 258.82C40.6299 268.04 44.7899 276.78 49.7799 284.94L49.9399 284.84C44.9299 276.67 40.7999 267.92 37.6199 258.72L37.45 258.82H37.4599Z" fill="#FAB72A"/>
<path d="M43.8101 156.25C44.2701 155.3 44.7601 154.38 45.2501 153.44C44.7601 154.37 44.2801 155.3 43.8101 156.25Z" fill="#FAB72A"/>
<path d="M40.98 162.42C41.59 161 42.23 159.6 42.88 158.21C42.22 159.6 41.59 161 40.98 162.42Z" fill="#FAB72A"/>
<path d="M66.5399 306.55L66.3899 306.64C90.7499 332.66 125.48 348.89 163.93 348.89C163.98 348.89 164.04 348.89 164.09 348.89C125.61 348.86 90.9499 332.57 66.5399 306.55Z" fill="#FAB72A"/>
<path d="M38.3799 168.95C33.0799 183.35 30.1599 198.89 30.1599 215.12C30.1599 220.5 30.4799 225.84 31.1199 231.06L31.2599 230.98C30.6299 225.72 30.2699 220.38 30.2699 214.95C30.2699 198.79 33.1299 183.29 38.3799 168.95Z" fill="#FAB72A"/>
<path opacity="0.55" d="M164.22 348.89C164.51 348.89 164.79 348.87 165.08 348.87C164.75 348.87 164.43 348.89 164.1 348.89C164.14 348.89 164.18 348.89 164.22 348.89Z" fill="#3957A3"/>
<path opacity="0.55" d="M38.3799 168.95C38.3799 168.95 38.3999 168.88 38.4199 168.85C38.4099 168.88 38.3999 168.92 38.3799 168.95Z" fill="#3957A3"/>
<path opacity="0.55" d="M45.24 153.44C45.78 152.4 46.32 151.35 46.89 150.32C46.32 151.35 45.78 152.39 45.24 153.44Z" fill="#3957A3"/>
<path opacity="0.55" d="M148.37 82.2801C148.59 82.1801 148.88 82.1201 149.11 82.0201C149.23 81.9701 149.33 81.8901 149.44 81.8301C105.54 86.6501 68.0399 112.68 47.3799 149.46C67.9199 113.1 104.97 87.3001 148.37 82.2701V82.2801Z" fill="#3957A3"/>
<path opacity="0.55" d="M173.11 348.57C172.05 348.64 170.98 348.71 169.91 348.75C170.98 348.71 172.04 348.64 173.11 348.57Z" fill="#3957A3"/>
<path opacity="0.55" d="M42.8799 158.21C43.1899 157.56 43.4899 156.9 43.7999 156.25C43.4799 156.9 43.1799 157.56 42.8799 158.21Z" fill="#3957A3"/>
<path d="M216.49 92.07L116.62 150.58C114.44 151.83 112.11 152.44 109.74 152.44C105.1 152.44 100.58 150.04 98.06 145.72C94.25 139.25 96.43 130.96 102.89 127.15L179.55 82.24H179.42C179.2 82.14 178.97 82.11 178.75 82.02C178.57 81.94 178.42 81.83 178.25 81.74C173.64 81.26 168.95 81 164.21 81C159.21 81 154.29 81.3 149.44 81.83C149.32 81.89 149.22 81.97 149.11 82.02C148.89 82.12 148.6 82.18 148.37 82.28C104.97 87.31 67.92 113.11 47.38 149.47C47.22 149.76 47.05 150.04 46.89 150.33C46.32 151.36 45.79 152.41 45.24 153.45C44.76 154.38 44.26 155.31 43.8 156.26C43.48 156.91 43.18 157.57 42.88 158.22C42.23 159.61 41.58 161.01 40.98 162.43C40.84 162.76 40.7 163.1 40.56 163.43C39.81 165.22 39.09 167.03 38.42 168.86C38.41 168.89 38.4 168.93 38.38 168.96C33.13 183.31 30.27 198.8 30.27 214.96C30.27 220.39 30.63 225.73 31.26 230.99L181.47 142.98C183.65 141.73 185.98 141.12 188.32 141.12C192.96 141.12 197.51 143.55 200.07 147.81C203.85 154.31 201.67 162.63 195.2 166.44L37.62 258.72C40.8 267.92 44.93 276.68 49.94 284.84L280.6 149.72C266.26 124.08 243.69 103.69 216.48 92.07H216.49Z" fill="url(#paint0_linear_2_262)"/>
<path d="M173.11 348.57C173.86 348.52 174.61 348.46 175.36 348.4C225.84 344.13 268.32 311.89 287.21 267.21L241.05 294.23C238.9 295.48 236.57 296.09 234.23 296.09C229.59 296.09 225.04 293.66 222.48 289.37C218.7 282.9 220.91 274.58 227.35 270.8L296.88 230.05C297.46 225.18 297.71 220.16 297.71 215.13C297.71 201.08 295.57 187.54 291.5 174.8L66.55 306.56C90.96 332.58 125.62 348.86 164.1 348.9C164.43 348.9 164.76 348.88 165.08 348.88C166.7 348.87 168.31 348.83 169.91 348.76C170.98 348.71 172.05 348.65 173.11 348.58V348.57Z" fill="url(#paint1_linear_2_262)"/>
<path d="M44.52 81C44.52 93.3 34.55 103.26 22.26 103.26C9.97 103.26 0 93.3 0 81C0 68.7 9.97 58.74 22.26 58.74C34.55 58.74 44.52 68.71 44.52 81Z" fill="#FCF0BE"/>
<path d="M134.83 403.59C134.83 409 130.44 413.38 125.04 413.38C119.64 413.38 115.25 408.99 115.25 403.59C115.25 398.19 119.64 393.8 125.04 393.8C130.44 393.8 134.83 398.19 134.83 403.59Z" fill="#EB9AC3"/>
<path style="mix-blend-mode:multiply" opacity="0.37" d="M272 135.96C273.54 141.44 274.77 147.04 275.68 152.75L280.85 149.72C278.18 144.94 275.22 140.35 272 135.95V135.96Z" fill="url(#paint2_linear_2_262)"/>
<path style="mix-blend-mode:multiply" opacity="0.37" d="M234.47 296.07C230.45 296.07 226.51 294.24 223.86 290.97C197.97 312.58 164.65 325.58 128.3 325.58C110.41 325.58 93.2601 322.42 77.3701 316.64C100.76 336.7 131.13 348.85 164.35 348.88C164.68 348.88 165.01 348.86 165.33 348.86C166.95 348.85 168.56 348.81 170.16 348.74C171.23 348.69 172.3 348.63 173.36 348.56C174.11 348.51 174.86 348.45 175.61 348.39C178.45 348.15 181.27 347.81 184.06 347.39C229.99 339.75 268.16 309.17 286.4 267.81L241.3 294.21C239.15 295.46 236.82 296.07 234.48 296.07H234.47Z" fill="url(#paint3_linear_2_262)"/>
<path style="mix-blend-mode:multiply" opacity="0.37" d="M291.74 174.79L277.39 183.2C276.21 209.24 268.36 233.54 255.51 254.43L296.85 230.2C297.52 224.96 297.88 219.62 297.93 214.21C297.84 200.49 295.71 187.26 291.74 174.8V174.79Z" fill="url(#paint4_linear_2_262)"/>
<path d="M444.786 300.69C404.46 300.69 375.978 270.234 375.978 229.062V94.8299H421.098V227.934C421.098 243.444 430.404 254.442 444.786 254.442V300.69ZM543.946 304.074C500.518 304.074 466.96 271.08 466.96 226.806V148.692H512.08V226.806C512.08 245.982 525.334 258.954 543.946 258.954C562.276 258.954 575.248 245.982 575.248 226.806V148.692H620.368V226.806C620.368 271.08 586.81 304.074 543.946 304.074ZM719.377 302.664C675.667 302.664 640.417 267.414 640.417 223.986C640.417 180.84 675.667 145.59 719.377 145.59C762.523 145.59 797.773 180.84 797.773 223.986V304.356H752.653V289.974C744.475 297.588 732.349 302.664 719.377 302.664ZM719.377 257.544C737.707 257.544 752.653 242.598 752.653 223.986C752.653 205.656 737.707 190.71 719.377 190.71C700.483 190.71 685.537 205.656 685.537 223.986C685.537 242.598 700.483 257.544 719.377 257.544Z" fill="url(#paint5_linear_2_262)"/>
<defs>
<linearGradient id="paint0_linear_2_262" x1="35.54" y1="162.77" x2="290.17" y2="229.29" gradientUnits="userSpaceOnUse">
<stop stop-color="#FCF0BE"/>
<stop offset="0.42" stop-color="#EC9EC3"/>
<stop offset="1" stop-color="#6F388D"/>
</linearGradient>
<linearGradient id="paint1_linear_2_262" x1="77.31" y1="222.81" x2="300.14" y2="284.3" gradientUnits="userSpaceOnUse">
<stop stop-color="#FCF0BE"/>
<stop offset="0.42" stop-color="#EC9EC3"/>
<stop offset="1" stop-color="#6F388D"/>
</linearGradient>
<linearGradient id="paint2_linear_2_262" x1="69.4199" y1="144.36" x2="297.95" y2="144.36" gradientUnits="userSpaceOnUse">
<stop stop-color="#FFEF26"/>
<stop offset="0.02" stop-color="#FEE921"/>
<stop offset="0.1" stop-color="#FDD70E"/>
<stop offset="0.19" stop-color="#FDCB03"/>
<stop offset="0.28" stop-color="#FDC800"/>
<stop offset="0.67" stop-color="#F18F34"/>
<stop offset="0.89" stop-color="#E95F32"/>
<stop offset="1" stop-color="#E3312D"/>
</linearGradient>
<linearGradient id="paint3_linear_2_262" x1="0.000114441" y1="308.35" x2="1.00011" y2="308.35" gradientUnits="userSpaceOnUse">
<stop stop-color="#FFEF26"/>
<stop offset="0.02" stop-color="#FEE921"/>
<stop offset="0.1" stop-color="#FDD70E"/>
<stop offset="0.19" stop-color="#FDCB03"/>
<stop offset="0.28" stop-color="#FDC800"/>
<stop offset="0.67" stop-color="#F18F34"/>
<stop offset="0.89" stop-color="#E95F32"/>
<stop offset="1" stop-color="#E3312D"/>
</linearGradient>
<linearGradient id="paint4_linear_2_262" x1="1.52588e-05" y1="214.61" x2="1.00002" y2="214.61" gradientUnits="userSpaceOnUse">
<stop stop-color="#FFEF26"/>
<stop offset="0.02" stop-color="#FEE921"/>
<stop offset="0.1" stop-color="#FDD70E"/>
<stop offset="0.19" stop-color="#FDCB03"/>
<stop offset="0.28" stop-color="#FDC800"/>
<stop offset="0.67" stop-color="#F18F34"/>
<stop offset="0.89" stop-color="#E95F32"/>
<stop offset="1" stop-color="#E3312D"/>
</linearGradient>
<linearGradient id="paint5_linear_2_262" x1="-65" y1="-2.49999" x2="806.372" y2="313.751" gradientUnits="userSpaceOnUse">
<stop stop-color="#FCF0BE"/>
<stop offset="0.42" stop-color="#EC9EC3"/>
<stop offset="1" stop-color="#6F388D"/>
</linearGradient>
</defs>
</svg>
